<svg width="84" height="84" viewBox="0 0 84 84" fill="none" xmlns="http://www.w3.org/2000/svg">
<path fill-rule="evenodd" clip-rule="evenodd" d="M84 42C84 65.196 65.196 84 42 84C18.804 84 0 65.196 0 42C0 18.804 18.804 0 42 0C65.196 0 84 18.804 84 42ZM9.48201 42C9.48201 59.9592 24.0408 74.518 42 74.518C59.9592 74.518 74.518 59.9592 74.518 42C74.518 24.0408 59.9592 9.48199 42 9.48199C24.0408 9.48199 9.48201 24.0408 9.48201 42ZM48.3697 26.2316C51.2872 26.2316 53.6523 28.5967 53.6523 31.5142C53.6523 34.4317 51.2872 36.7968 48.3697 36.7968C45.4522 36.7968 43.0871 34.4317 43.0871 31.5142C43.0871 28.5967 45.4522 26.2316 48.3697 26.2316ZM42.2543 36.7543C42.3875 36.7543 42.5195 36.7593 42.6502 36.769C43.691 37.9013 45.0637 38.7237 46.6141 39.0819C47.1736 39.9162 47.5 40.92 47.5 42C47.5 44.8971 45.1514 47.2457 42.2543 47.2457C39.3572 47.2457 37.0087 44.8971 37.0087 42C37.0087 39.1029 39.3572 36.7543 42.2543 36.7543ZM34.8047 39.7898C34.5971 40.4904 34.4857 41.2322 34.4857 42C34.4857 42.7679 34.5971 43.5097 34.8047 44.2102C33.969 46.0163 32.1408 47.2693 30.02 47.2693C27.1098 47.2693 24.7507 44.9102 24.7507 42C24.7507 39.0899 27.1098 36.7308 30.02 36.7308C32.1408 36.7308 33.969 37.9837 34.8047 39.7898ZM53.6445 52.4859C53.6445 49.5733 51.2834 47.2122 48.3708 47.2122C48.246 47.2122 48.1221 47.2165 47.9994 47.225C46.9472 48.3816 45.5507 49.2193 43.9718 49.5761C43.4191 50.4101 43.0971 51.4104 43.0971 52.4859C43.0971 55.3984 45.4583 57.7595 48.3708 57.7595C51.2834 57.7595 53.6445 55.3984 53.6445 52.4859ZM59.7461 42C59.7461 39.0938 57.3901 36.7378 54.4838 36.7378C54.3567 36.7378 54.2306 36.7423 54.1057 36.7512C53.0573 37.8988 51.6691 38.7307 50.1003 39.0877C49.9504 39.3129 49.8173 39.5503 49.703 39.7982C49.909 40.4962 50.0195 41.2352 50.0195 42C50.0195 42.7648 49.909 43.5038 49.703 44.2019C49.8173 44.4497 49.9504 44.6872 50.1003 44.9124C51.6691 45.2694 53.0573 46.1013 54.1057 47.2489C54.2306 47.2578 54.3567 47.2623 54.4838 47.2623C57.3901 47.2623 59.7461 44.9063 59.7461 42ZM40.9219 50.2755C40.7143 50.9761 40.6028 51.718 40.6028 52.4859C40.6028 53.2538 40.7143 53.9957 40.9219 54.6962C40.0861 56.503 38.2573 57.7564 36.1358 57.7564C33.225 57.7564 30.8653 55.3967 30.8653 52.4859C30.8653 51.4099 31.1877 50.4093 31.7411 49.5753C33.317 49.2184 34.7111 48.3823 35.7621 47.2284C35.8855 47.2197 36.0102 47.2153 36.1358 47.2153C36.2612 47.2153 36.3856 47.2197 36.5088 47.2283C37.56 48.3825 38.9544 49.2187 40.5306 49.5755C40.678 49.7976 40.809 50.0315 40.9219 50.2755ZM40.5094 34.4263C40.6608 34.1992 40.795 33.9595 40.9102 33.7094C40.705 33.0126 40.595 32.2752 40.595 31.5121C40.595 30.7489 40.705 30.0114 40.9102 29.3147C40.0777 27.5058 38.2492 26.25 36.1274 26.25C33.2213 26.25 30.8654 28.6059 30.8654 31.5121C30.8654 32.5894 31.1892 33.5912 31.7448 34.4254C33.3117 34.7828 34.6983 35.614 35.7457 36.7604C35.8718 36.7695 35.9991 36.7741 36.1274 36.7741C36.1921 36.7741 36.2564 36.7729 36.3204 36.7706C36.385 36.7683 36.4493 36.7648 36.5132 36.7602C37.5596 35.615 38.9445 34.7843 40.5094 34.4263Z" fill="white" style="fill:white;fill:white;fill-opacity:1;"/>
</svg>
